<svg width="28" height="28" viewBox="0 0 28 28" fill="none" xmlns="http://www.w3.org/2000/svg">
<path d="M18.2857 1.90505C18.2857 1.66502 18.1963 1.43481 18.0372 1.26508C17.8781 1.09535 17.6624 1 17.4374 1C17.2124 1 16.9966 1.09535 16.8375 1.26508C16.6784 1.43481 16.589 1.66502 16.589 1.90505V3.71515C16.589 3.95518 16.6784 4.18539 16.8375 4.35512C16.9966 4.52485 17.2124 4.6202 17.4374 4.6202C17.6624 4.6202 17.8781 4.52485 18.0372 4.35512C18.1963 4.18539 18.2857 3.95518 18.2857 3.71515V1.90505ZM24.6366 5.46009C24.7176 5.3766 24.7822 5.27673 24.8267 5.16631C24.8712 5.05589 24.8946 4.93713 24.8955 4.81696C24.8965 4.69679 24.875 4.57761 24.8324 4.46638C24.7897 4.35516 24.7267 4.25411 24.6471 4.16913C24.5674 4.08415 24.4727 4.01695 24.3684 3.97144C24.2642 3.92593 24.1525 3.90303 24.0398 3.90408C23.9272 3.90512 23.8159 3.93009 23.7124 3.97752C23.6089 4.02496 23.5152 4.0939 23.437 4.18035L22.2357 5.46009C22.0764 5.63003 21.9869 5.86052 21.9869 6.10086C21.9869 6.3412 22.0764 6.57169 22.2357 6.74164C22.395 6.91158 22.6111 7.00705 22.8363 7.00705C23.0616 7.00705 23.2777 6.91158 23.437 6.74164L24.6366 5.46009ZM11.4377 4.18035C11.2777 4.01548 11.0634 3.92426 10.841 3.92632C10.6186 3.92838 10.4058 4.02357 10.2485 4.19137C10.0912 4.35917 10.002 4.58617 10 4.82347C9.9981 5.06077 10.0836 5.28939 10.2381 5.46009L11.4377 6.74164C11.5166 6.82578 11.6102 6.89253 11.7133 6.93808C11.8164 6.98362 11.9268 7.00705 12.0384 7.00705C12.1499 7.00705 12.2604 6.98362 12.3634 6.93808C12.4665 6.89253 12.5601 6.82578 12.639 6.74164C12.7179 6.65749 12.7805 6.55759 12.8231 6.44765C12.8658 6.3377 12.8878 6.21986 12.8878 6.10086C12.8878 5.98186 12.8658 5.86402 12.8231 5.75408C12.7805 5.64413 12.7179 5.54423 12.639 5.46009L11.4377 4.18035ZM14.3799 10.2876C14.5907 9.82141 14.8929 9.40887 15.2659 9.07782C15.639 8.74678 16.0742 8.50493 16.5423 8.36858C17.0104 8.23224 17.5005 8.20458 17.9794 8.28746C18.4584 8.37034 18.9151 8.56185 19.3188 8.84905C19.7225 9.13625 20.0638 9.51247 20.3196 9.95234C20.5754 10.3922 20.7399 10.8855 20.8018 11.3989C20.8637 11.9123 20.8217 12.4339 20.6786 12.9286C20.5355 13.4232 20.2947 13.8793 19.9723 14.2662C20.3099 14.7749 20.6034 15.3197 20.8478 15.8917C21.4228 15.3374 21.8716 14.6504 22.1599 13.8831C22.4483 13.1157 22.5686 12.2882 22.5117 11.4637C22.4548 10.6392 22.2222 9.83943 21.8316 9.12539C21.441 8.41135 20.9027 7.80189 20.2578 7.34346C19.6129 6.88503 18.8784 6.58974 18.1103 6.48011C17.3421 6.37048 16.5607 6.4494 15.8255 6.71086C15.0903 6.97231 14.4208 7.40939 13.868 7.98878C13.3152 8.56817 12.8937 9.27457 12.6356 10.0541C13.2329 10.074 13.8165 10.1537 14.3799 10.2876ZM25.0726 10.9556C24.8476 10.9556 24.6318 11.0509 24.4727 11.2206C24.3136 11.3904 24.2243 11.6206 24.2243 11.8606C24.2243 12.1006 24.3136 12.3308 24.4727 12.5006C24.6318 12.6703 24.8476 12.7656 25.0726 12.7656H26.7694C26.9944 12.7656 27.2101 12.6703 27.3692 12.5006C27.5283 12.3308 27.6177 12.1006 27.6177 11.8606C27.6177 11.6206 27.5283 11.3904 27.3692 11.2206C27.2101 11.0509 26.9944 10.9556 26.7694 10.9556H25.0726Z" fill="#F9AB37" stroke="#F9AB37" stroke-width="0.5"/>
<path d="M11.3333 22C11.3333 23.6569 9.31859 25 6.83331 25C4.34803 25 2.33331 23.6569 2.33331 22C2.33331 20.3431 4.34803 19 6.83331 19C9.31859 19 11.3333 20.3431 11.3333 22Z" fill="#D9D9D9"/>
<path d="M24.3333 21C24.3333 23.7614 22.0947 26 19.3333 26C16.5719 26 14.3333 23.7614 14.3333 21C14.3333 18.2386 16.5719 16 19.3333 16C22.0947 16 24.3333 18.2386 24.3333 21Z" fill="#D9D9D9"/>
<path d="M19.3333 18.5C19.3333 22.6421 16.1993 26 12.3333 26C8.46732 26 5.33331 22.6421 5.33331 18.5C5.33331 14.3579 8.46732 11 12.3333 11C16.1993 11 19.3333 14.3579 19.3333 18.5Z" fill="#D9D9D9"/>
<path d="M20 27.3333H5.33333C2.392 27.3333 0 24.9413 0 22C0.00137564 20.8176 0.394937 19.6691 1.11903 18.7344C1.84312 17.7996 2.85682 17.1315 4.00133 16.8347L4 16.6667C4 12.2547 7.588 8.66667 12 8.66667C13.6567 8.66392 15.2729 9.17823 16.6233 10.1379C17.9737 11.0975 18.991 12.4546 19.5333 14.02C23.456 13.692 26.6667 16.8373 26.6667 20.6667C26.6667 24.3427 23.676 27.3333 20 27.3333ZM5.20667 19.3253C3.86267 19.3333 2.66667 20.5293 2.66667 22C2.66667 23.4707 3.86267 24.6667 5.33333 24.6667H20C22.2053 24.6667 24 22.872 24 20.6667C24 18.4613 22.2053 16.6667 20 16.6667C19.676 16.6667 19.3333 16.7213 18.92 16.84L17.4867 17.2493L17.2387 15.7787C17.0349 14.5366 16.3961 13.4075 15.4364 12.5931C14.4767 11.7788 13.2587 11.3322 12 11.3333C11.2081 11.3341 10.4262 11.511 9.71113 11.8513C8.99603 12.1916 8.3656 12.6867 7.86551 13.3008C7.36543 13.9148 7.00822 14.6325 6.81978 15.4017C6.63134 16.1708 6.61639 16.9723 6.776 17.748L7.10133 19.3467L5.20667 19.3253Z" fill="#959595"/>
</svg>
