<svg width="50" height="50" viewBox="0 0 50 50" fill="none" xmlns="http://www.w3.org/2000/svg">
<g filter="url(#filter0_b_16_24)">
<rect width="50" height="50" rx="25" fill="black" fill-opacity="0.05"/>
<path opacity="0.5" d="M35.661 15.9011L36.5607 16.7689L35.661 15.9011C35.6103 15.9536 35.5514 15.9743 35.5 15.9743H27.5813C26.4179 15.9743 25.4128 16.4058 24.5783 16.9024C23.9634 17.2683 23.355 17.7269 22.8275 18.1244C22.6633 18.2482 22.507 18.366 22.3607 18.4733C21.812 18.8758 21.1619 19.0884 20.5 19.0884C19.8381 19.0884 19.188 18.8758 18.6393 18.4733C18.4287 18.3188 18.2369 18.1391 18.0673 17.9382C17.3346 17.0698 16.128 15.9743 14.5 15.9743C14.4486 15.9743 14.3897 15.9536 14.339 15.9011C14.2869 15.847 14.25 15.7644 14.25 15.6692C14.25 15.574 14.2869 15.4914 14.339 15.4374C14.3897 15.3848 14.4486 15.3641 14.5 15.3641C16.128 15.3641 17.3346 14.2686 18.0673 13.4002L17.112 12.5941L18.0673 13.4002C18.2369 13.1993 18.4287 13.0196 18.6393 12.8651C19.188 12.4626 19.8381 12.25 20.5 12.25C21.1619 12.25 21.812 12.4626 22.3607 12.8651C22.507 12.9724 22.6633 13.0903 22.8275 13.214C23.355 13.6116 23.9634 14.0701 24.5783 14.436C25.4128 14.9327 26.4179 15.3641 27.5813 15.3641H35.5C35.5514 15.3641 35.6103 15.3848 35.661 15.4374C35.7131 15.4914 35.75 15.574 35.75 15.6692C35.75 15.7644 35.7131 15.847 35.661 15.9011ZM18.5397 13.7018L19.4393 14.5696L18.5397 13.7018C18.0292 14.231 17.75 14.9395 17.75 15.6692C17.75 16.3989 18.0292 17.1074 18.5397 17.6366C19.0516 18.1674 19.7558 18.4743 20.5 18.4743C21.2442 18.4743 21.9484 18.1674 22.4603 17.6366C22.9708 17.1074 23.25 16.3989 23.25 15.6692C23.25 14.9395 22.9708 14.231 22.4603 13.7018C21.9484 13.171 21.2442 12.8641 20.5 12.8641C19.7558 12.8641 19.0516 13.171 18.5397 13.7018ZM29.5 22.1949C28.7558 22.1949 28.0516 22.5018 27.5397 23.0326C27.0292 23.5618 26.75 24.2703 26.75 25C26.75 25.7297 27.0292 26.4382 27.5397 26.9674C28.0516 27.4982 28.7558 27.8051 29.5 27.8051C30.2442 27.8051 30.9484 27.4982 31.4603 26.9674C31.9708 26.4382 32.25 25.7297 32.25 25C32.25 24.2703 31.9708 23.5618 31.4603 23.0326C30.9484 22.5018 30.2442 22.1949 29.5 22.1949ZM22.4187 24.6949C23.5821 24.6949 24.5872 24.2635 25.4217 23.7668C26.0366 23.4009 26.645 22.9424 27.1725 22.5448C27.3367 22.4211 27.493 22.3032 27.6393 22.1959C28.188 21.7934 28.8381 21.5808 29.5 21.5808C30.1619 21.5808 30.812 21.7934 31.3607 22.1959C31.5713 22.3504 31.7631 22.5301 31.9327 22.731C32.6654 23.5994 33.872 24.6949 35.5 24.6949C35.5515 24.6949 35.6103 24.7156 35.661 24.7681C35.7131 24.8222 35.75 24.9048 35.75 25C35.75 25.0952 35.7131 25.1778 35.661 25.2318C35.6103 25.2844 35.5514 25.3051 35.5 25.3051C33.872 25.3051 32.6654 26.4006 31.9327 27.269C31.7631 27.4699 31.5713 27.6496 31.3607 27.8041C30.812 28.2066 30.1619 28.4192 29.5 28.4192C28.8381 28.4192 28.188 28.2066 27.6393 27.8041C27.493 27.6968 27.3367 27.5789 27.1725 27.4552C26.645 27.0576 26.0366 26.5991 25.4217 26.2332C24.5872 25.7365 23.5821 25.3051 22.4187 25.3051H14.5C14.4486 25.3051 14.3897 25.2844 14.339 25.2318C14.2869 25.1778 14.25 25.0952 14.25 25C14.25 24.9048 14.2869 24.8222 14.339 24.7681C14.3897 24.7156 14.4485 24.6949 14.5 24.6949H22.4187ZM20.5 31.5257C19.7558 31.5257 19.0516 31.8326 18.5397 32.3634C18.0292 32.8926 17.75 33.6011 17.75 34.3308C17.75 35.0605 18.0292 35.769 18.5397 36.2982C19.0516 36.829 19.7558 37.1359 20.5 37.1359C21.2442 37.1359 21.9484 36.829 22.4603 36.2982C22.9708 35.769 23.25 35.0605 23.25 34.3308C23.25 33.6011 22.9708 32.8926 22.4603 32.3634C21.9484 31.8326 21.2442 31.5257 20.5 31.5257ZM14.5 34.0257C16.128 34.0257 17.3346 32.9302 18.0673 32.0618C18.2369 31.8609 18.4287 31.6812 18.6393 31.5267C19.188 31.1242 19.8381 30.9116 20.5 30.9116C21.1619 30.9116 21.812 31.1242 22.3607 31.5267C22.507 31.634 22.6633 31.7518 22.8275 31.8756C23.355 32.2731 23.9634 32.7317 24.5783 33.0976C25.4128 33.5942 26.4179 34.0257 27.5813 34.0257H35.5C35.5514 34.0257 35.6103 34.0464 35.661 34.0989C35.7131 34.153 35.75 34.2356 35.75 34.3308C35.75 34.426 35.7131 34.5086 35.661 34.5626C35.6103 34.6152 35.5515 34.6359 35.5 34.6359H27.5813C26.4179 34.6359 25.4128 35.0673 24.5783 35.564C23.9634 35.9299 23.355 36.3884 22.8275 36.786C22.6633 36.9098 22.507 37.0276 22.3607 37.1349C21.812 37.5374 21.1619 37.75 20.5 37.75C19.8381 37.75 19.188 37.5374 18.6393 37.1349C18.4287 36.9804 18.2369 36.8007 18.0673 36.5998C17.3346 35.7314 16.128 34.6359 14.5 34.6359C14.4485 34.6359 14.3897 34.6152 14.339 34.5626C14.2869 34.5086 14.25 34.426 14.25 34.3308C14.25 34.2356 14.2869 34.153 14.339 34.0989C14.3897 34.0464 14.4486 34.0257 14.5 34.0257Z" stroke="white" stroke-width="2.5"/>
</g>
<defs>
<filter id="filter0_b_16_24" x="-40" y="-40" width="130" height="130" filterUnits="userSpaceOnUse" color-interpolation-filters="sRGB">
<feFlood flood-opacity="0" result="BackgroundImageFix"/>
<feGaussianBlur in="BackgroundImageFix" stdDeviation="20"/>
<feComposite in2="SourceAlpha" operator="in" result="effect1_backgroundBlur_16_24"/>
<feBlend mode="normal" in="SourceGraphic" in2="effect1_backgroundBlur_16_24" result="shape"/>
</filter>
</defs>
</svg>
