<svg width="20" height="20" viewBox="0 0 20 20" fill="none" xmlns="http://www.w3.org/2000/svg">
<path opacity="0.5" d="M8.94736 6.83334H13.6842M7.36841 11.0556H13.6842M7.36841 8.94445H13.6842M7.36841 6.83334H7.5263" stroke="white" stroke-linecap="round"/>
<path opacity="0.5" d="M9.23591 17.4056L9.23449 17.4042C6.64038 14.9686 4.56609 13.0159 3.12866 11.195C1.70317 9.3892 1 7.82904 1 6.19482C1 3.51577 3.00364 1.5 5.5 1.5C6.92453 1.5 8.31844 2.19201 9.23011 3.29185C9.42009 3.52104 9.7023 3.65368 10 3.65368C10.2977 3.65368 10.5799 3.52104 10.7699 3.29185C11.6816 2.19201 13.0755 1.5 14.5 1.5C16.9964 1.5 19 3.51577 19 6.19482C19 7.82904 18.2968 9.3892 16.8713 11.195C15.4339 13.0159 13.3596 14.9686 10.7655 17.4042L10.7641 17.4056L10 18.1258L9.23591 17.4056Z" stroke="white" stroke-width="2" stroke-linejoin="round"/>
</svg>
