<svg width="19" height="18" viewBox="0 0 19 18" fill="none" xmlns="http://www.w3.org/2000/svg">
<path d="M8.8074 15.9765L8.80598 15.9752C6.34058 13.6668 4.37326 11.8198 3.01063 10.0984C1.65988 8.39205 1 6.92571 1 5.3951C1 2.88709 2.88007 1 5.225 1C6.56359 1 7.8742 1.64878 8.73098 2.67955C8.92096 2.90812 9.20278 3.04033 9.5 3.04033C9.79722 3.04033 10.079 2.90811 10.269 2.67955C11.1258 1.64878 12.4364 1 13.775 1C16.1199 1 18 2.88709 18 5.3951C18 6.92571 17.3401 8.39205 15.9894 10.0984C14.6267 11.8198 12.6594 13.6668 10.194 15.9752L10.1926 15.9765L9.5 16.6276L8.8074 15.9765Z" stroke="#CA0000" stroke-width="2" stroke-linejoin="round"/>
</svg>
