<svg width="268" height="64" viewBox="0 0 268 64" fill="none" xmlns="http://www.w3.org/2000/svg">
<g filter="url(#filter0_b_16_18)">
<rect width="268" height="64" rx="32" fill="black" fill-opacity="0.05"/>
<path opacity="0.75" d="M79.3157 36V27.992H81.0797V34.572H85.1957V36H79.3157ZM86.5207 36V27.992H88.2847V36H86.5207ZM92.244 31.254H96.304V32.626H92.244V31.254ZM92.482 34.586H96.934V36H90.718V27.992H96.78V29.42H92.482V34.586ZM102.327 36.14C101.562 36.14 100.904 36 100.353 35.72C99.8117 35.4307 99.3964 35.02 99.1071 34.488C98.8177 33.9467 98.6731 33.3073 98.6731 32.57V27.992H100.437V32.514C100.437 33.2047 100.6 33.732 100.927 34.096C101.254 34.46 101.725 34.642 102.341 34.642C102.948 34.642 103.41 34.4647 103.727 34.11C104.054 33.746 104.217 33.214 104.217 32.514V27.992H105.953V32.57C105.953 33.3073 105.808 33.9467 105.519 34.488C105.239 35.02 104.828 35.4307 104.287 35.72C103.746 36 103.092 36.14 102.327 36.14ZM110.895 36L114.535 27.992H116.285L119.911 36H118.161L115.109 28.888H115.697L112.617 36H110.895ZM112.701 34.264L113.177 32.92H117.349L117.825 34.264H112.701ZM121.056 36V27.992H122.82V34.572H126.936V36H121.056ZM129.787 31.254H133.847V32.626H129.787V31.254ZM130.025 34.586H134.477V36H128.261V27.992H134.323V29.42H130.025V34.586ZM130.123 26.97L132.013 25.052H134.071L131.635 26.97H130.123ZM135.012 36L138.652 27.992H140.402L144.028 36H142.278L139.226 28.888H139.814L136.734 36H135.012ZM136.818 34.264L137.294 32.92H141.466L141.942 34.264H136.818ZM146.151 36V29.434H143.519V27.992H150.547V29.434H147.915V36H146.151ZM155.447 36.14C154.598 36.14 153.837 35.9627 153.165 35.608C152.502 35.244 151.98 34.7493 151.597 34.124C151.214 33.4987 151.023 32.7893 151.023 31.996C151.023 31.2027 151.214 30.498 151.597 29.882C151.98 29.2567 152.502 28.7667 153.165 28.412C153.837 28.048 154.593 27.866 155.433 27.866C156.282 27.866 157.038 28.048 157.701 28.412C158.373 28.7667 158.9 29.2567 159.283 29.882C159.666 30.498 159.857 31.2027 159.857 31.996C159.857 32.7893 159.666 33.4987 159.283 34.124C158.9 34.7493 158.373 35.244 157.701 35.608C157.038 35.9627 156.287 36.14 155.447 36.14ZM155.433 34.642C155.946 34.642 156.399 34.53 156.791 34.306C157.192 34.0727 157.505 33.7553 157.729 33.354C157.953 32.9527 158.065 32.5 158.065 31.996C158.065 31.4827 157.948 31.03 157.715 30.638C157.491 30.2367 157.183 29.924 156.791 29.7C156.399 29.476 155.951 29.364 155.447 29.364C154.943 29.364 154.49 29.476 154.089 29.7C153.688 29.924 153.37 30.2367 153.137 30.638C152.913 31.03 152.801 31.4827 152.801 31.996C152.801 32.5 152.913 32.9527 153.137 33.354C153.37 33.7553 153.688 34.0727 154.089 34.306C154.49 34.53 154.938 34.642 155.433 34.642ZM161.62 36V27.992H163.384V36H161.62ZM165.818 36V27.992H169.276C169.994 27.992 170.615 28.1087 171.138 28.342C171.66 28.566 172.062 28.8927 172.342 29.322C172.631 29.7513 172.776 30.2693 172.776 30.876C172.776 31.4733 172.631 31.9867 172.342 32.416C172.062 32.8453 171.66 33.172 171.138 33.396C170.615 33.62 169.994 33.732 169.276 33.732H166.798L167.582 32.962V36H165.818ZM171.026 36L168.968 33.088H170.872L172.93 36H171.026ZM167.582 33.172L166.938 32.346H169.15C169.766 32.346 170.228 32.22 170.536 31.968C170.844 31.7067 170.998 31.3427 170.998 30.876C170.998 30.4093 170.844 30.05 170.536 29.798C170.228 29.546 169.766 29.42 169.15 29.42H166.938L167.582 28.608V33.172ZM176.258 31.254H180.318V32.626H176.258V31.254ZM176.496 34.586H180.948V36H174.732V27.992H180.794V29.42H176.496V34.586ZM192.562 33.634C192.562 34.138 192.422 34.5767 192.142 34.95C191.871 35.3233 191.484 35.6173 190.98 35.832C190.476 36.0373 189.86 36.14 189.132 36.14C188.507 36.14 187.891 36.056 187.284 35.888C186.687 35.72 186.206 35.5007 185.842 35.23L186.5 33.858C186.836 34.11 187.247 34.3107 187.732 34.46C188.217 34.6093 188.712 34.684 189.216 34.684C189.813 34.684 190.229 34.5953 190.462 34.418C190.695 34.2407 190.812 34.0307 190.812 33.788C190.812 33.564 190.723 33.3867 190.546 33.256C190.378 33.1253 190.149 33.0227 189.86 32.948C189.58 32.864 189.272 32.7893 188.936 32.724C188.6 32.6493 188.264 32.5653 187.928 32.472C187.592 32.3787 187.284 32.248 187.004 32.08C186.724 31.912 186.495 31.688 186.318 31.408C186.15 31.128 186.066 30.7733 186.066 30.344C186.066 29.8493 186.206 29.4153 186.486 29.042C186.766 28.6687 187.158 28.3793 187.662 28.174C188.175 27.9687 188.777 27.866 189.468 27.866C189.963 27.866 190.457 27.922 190.952 28.034C191.456 28.1367 191.895 28.3093 192.268 28.552L191.666 29.924C191.311 29.6907 190.938 29.532 190.546 29.448C190.163 29.3547 189.785 29.308 189.412 29.308C188.852 29.308 188.446 29.3967 188.194 29.574C187.951 29.7513 187.83 29.9753 187.83 30.246C187.83 30.47 187.914 30.6473 188.082 30.778C188.259 30.9087 188.488 31.016 188.768 31.1C189.048 31.1747 189.356 31.2447 189.692 31.31C190.037 31.3753 190.373 31.4593 190.7 31.562C191.036 31.6553 191.344 31.786 191.624 31.954C191.913 32.1127 192.142 32.3273 192.31 32.598C192.478 32.8687 192.562 33.214 192.562 33.634ZM197.784 36.14C197.019 36.14 196.361 36 195.81 35.72C195.269 35.4307 194.853 35.02 194.564 34.488C194.275 33.9467 194.13 33.3073 194.13 32.57V27.992H195.894V32.514C195.894 33.2047 196.057 33.732 196.384 34.096C196.711 34.46 197.182 34.642 197.798 34.642C198.405 34.642 198.867 34.4647 199.184 34.11C199.511 33.746 199.674 33.214 199.674 32.514V27.992H201.41V32.57C201.41 33.3073 201.265 33.9467 200.976 34.488C200.696 35.02 200.285 35.4307 199.744 35.72C199.203 36 198.549 36.14 197.784 36.14ZM203.771 36V27.992H205.535V36H203.771ZM210.306 36L206.778 27.992H208.668L211.748 35.174H210.67L213.792 27.992H215.57L212.056 36H210.306ZM215.006 36L218.646 27.992H220.396L224.022 36H222.272L219.22 28.888H219.808L216.728 36H215.006ZM216.812 34.264L217.288 32.92H221.46L221.936 34.264H216.812ZM225.167 36V27.992H226.623L231.453 33.844H230.795V27.992H232.545V36H231.089L226.259 30.148H226.931V36H225.167ZM236.454 36V29.434H233.822V27.992H240.85V29.434H238.218V36H236.454Z" fill="white"/>
<g filter="url(#filter1_b_16_18)">
<circle cx="32" cy="32" r="32" fill="black" fill-opacity="0.05"/>
</g>
<path opacity="0.5" d="M12 30.5C11.1716 30.5 10.5 31.1716 10.5 32C10.5 32.8284 11.1716 33.5 12 33.5V30.5ZM53.0607 33.0607C53.6464 32.4749 53.6464 31.5251 53.0607 30.9393L43.5147 21.3934C42.9289 20.8076 41.9792 20.8076 41.3934 21.3934C40.8076 21.9792 40.8076 22.9289 41.3934 23.5147L49.8787 32L41.3934 40.4853C40.8076 41.0711 40.8076 42.0208 41.3934 42.6066C41.9792 43.1924 42.9289 43.1924 43.5147 42.6066L53.0607 33.0607ZM12 33.5H52V30.5H12V33.5Z" fill="white"/>
</g>
<defs>
<filter id="filter0_b_16_18" x="-40" y="-40" width="348" height="144" filterUnits="userSpaceOnUse" color-interpolation-filters="sRGB">
<feFlood flood-opacity="0" result="BackgroundImageFix"/>
<feGaussianBlur in="BackgroundImageFix" stdDeviation="20"/>
<feComposite in2="SourceAlpha" operator="in" result="effect1_backgroundBlur_16_18"/>
<feBlend mode="normal" in="SourceGraphic" in2="effect1_backgroundBlur_16_18" result="shape"/>
</filter>
<filter id="filter1_b_16_18" x="-40" y="-40" width="144" height="144" filterUnits="userSpaceOnUse" color-interpolation-filters="sRGB">
<feFlood flood-opacity="0" result="BackgroundImageFix"/>
<feGaussianBlur in="BackgroundImageFix" stdDeviation="20"/>
<feComposite in2="SourceAlpha" operator="in" result="effect1_backgroundBlur_16_18"/>
<feBlend mode="normal" in="SourceGraphic" in2="effect1_backgroundBlur_16_18" result="shape"/>
</filter>
</defs>
</svg>
