<svg width="29" height="30" viewBox="0 0 29 30" fill="none" xmlns="http://www.w3.org/2000/svg">
<path d="M14 5V2M6.929 7.929L4.808 5.808M4 15H1M14 28V25M23.192 24.192L21.071 22.072M27 15H24M6.929 22.071L4.808 24.192M23.192 5.808L21.072 7.929M20 15C20 16.5913 19.3679 18.1174 18.2426 19.2426C17.1174 20.3679 15.5913 21 14 21C12.4087 21 10.8826 20.3679 9.75736 19.2426C8.63214 18.1174 8 16.5913 8 15C8 13.4087 8.63214 11.8826 9.75736 10.7574C10.8826 9.63214 12.4087 9 14 9C15.5913 9 17.1174 9.63214 18.2426 10.7574C19.3679 11.8826 20 13.4087 20 15Z" stroke="#F9AB37" stroke-width="3" stroke-linecap="round" stroke-linejoin="round"/>
</svg>
